<?xml version="1.0" encoding="utf-8"?>
<!-- Generator: Adobe Illustrator 16.0.0, SVG Export Plug-In . SVG Version: 6.00 Build 0)  -->
<!DOCTYPE svg PUBLIC "-//W3C//DTD SVG 1.1//EN" "http://www.w3.org/Graphics/SVG/1.1/DTD/svg11.dtd">
<svg version="1.1" id="Layer_1" xmlns="http://www.w3.org/2000/svg" xmlns:xlink="http://www.w3.org/1999/xlink" x="0px" y="0px"
	 width="200px" height="200px" viewBox="0 0 200 200" enable-background="new 0 0 200 200" xml:space="preserve">
<g id="XMLID_767_">
	<circle id="XMLID_343_" fill="#D1DDE8" cx="111.573" cy="62.333" r="53.359"/>
	<circle id="XMLID_766_" fill="#E7ECF3" cx="176.117" cy="102.534" r="21.583"/>
	<g id="XMLID_204_">
		<g id="XMLID_3_">
			<path id="XMLID_6_" fill="#245296" d="M71.481,119.235L71.481,119.235L55.635,91.746l-26.05,16.294l16.144,28.082
				c0.357,0.699,0.793,1.365,1.315,1.98c4.457,5.238,13.347,4.997,19.856-0.54C72.941,132.423,74.806,124.532,71.481,119.235z"/>
			<path id="XMLID_277_" fill="#5AC7DA" d="M61.726,127.189c1.483-1.262,2.726-2.678,3.73-4.176
				c-0.074-0.134-0.14-0.273-0.221-0.403h0l-6.155-10.675c-0.926,1.273-2.029,2.479-3.311,3.57
				c-7.059,6.004-16.694,6.273-21.541,0.609l7.606,13.231C46.997,133.332,55.393,132.576,61.726,127.189z"/>
			<linearGradient id="XMLID_17_" gradientUnits="userSpaceOnUse" x1="75.8213" y1="125.8379" x2="16.4849" y2="100.8215">
				<stop  offset="0.002" style="stop-color:#FFFFFF;stop-opacity:0"/>
				<stop  offset="1" style="stop-color:#245296"/>
			</linearGradient>
			<path id="XMLID_278_" fill="url(#XMLID_17_)" d="M56.373,141.176c-0.598-0.703-1.096-1.465-1.504-2.268l-18.475-32.135
				l20.509-12.828l-1.268-2.199l-26.05,16.294l16.144,28.082c0.357,0.699,0.793,1.365,1.315,1.98
				c2.385,2.803,6.042,4.021,9.922,3.715C56.762,141.611,56.563,141.4,56.373,141.176z"/>
			
				<ellipse id="XMLID_2_" transform="matrix(0.6479 0.7617 -0.7617 0.6479 91.638 2.6866)" fill="#245296" cx="42.913" cy="100.47" rx="12.455" ry="15.474"/>
			<linearGradient id="XMLID_18_" gradientUnits="userSpaceOnUse" x1="19.3374" y1="79.0142" x2="56.1369" y2="112.5059">
				<stop  offset="0.002" style="stop-color:#FFFFFF;stop-opacity:0"/>
				<stop  offset="1" style="stop-color:#245296"/>
			</linearGradient>
			<path id="XMLID_4_" fill="url(#XMLID_18_)" d="M50.225,109.066c-5.898,5.018-13.954,5.236-17.993,0.488
				c-4.038-4.747-2.53-12.662,3.369-17.68c5.898-5.018,13.954-5.236,17.992-0.49C57.631,96.132,56.124,104.048,50.225,109.066z"/>
			<g id="XMLID_270_">
				<defs>
					
						<ellipse id="XMLID_269_" transform="matrix(0.6479 0.7617 -0.7617 0.6479 91.6367 2.6862)" cx="42.913" cy="100.47" rx="11.285" ry="14.021"/>
				</defs>
				<clipPath id="XMLID_19_">
					<use xlink:href="#XMLID_269_"  overflow="visible"/>
				</clipPath>
				<g id="XMLID_5_" clip-path="url(#XMLID_19_)">
					<path id="XMLID_10_" fill="#D1DDE8" d="M59.632,106.575l-0.027-2.56l-0.599,0.006c-0.969-1.921-2.964-3.233-5.262-3.209
						c-2.297,0.023-4.264,1.378-5.192,3.321l-0.599,0.005l0.027,2.561c0.034,3.218,2.67,5.798,5.887,5.764
						C57.085,112.43,59.667,109.794,59.632,106.575z"/>
					<circle id="XMLID_9_" fill="#E7ECF3" cx="53.779" cy="104.078" r="5.826"/>
					<path id="XMLID_8_" fill="#FFFFFF" d="M48.094,102.825c-0.093,0.423-0.145,0.861-0.14,1.313s0.066,0.89,0.168,1.311
						l11.344-0.12c0.093-0.423,0.144-0.861,0.14-1.313c-0.005-0.451-0.066-0.89-0.167-1.311L48.094,102.825z"/>
				</g>
				<g id="XMLID_203_" clip-path="url(#XMLID_19_)">
					<path id="XMLID_268_" fill="#D1DDE8" d="M50.07,94.744l-2.351-1.018l-0.237,0.55c-2.15,0.104-4.161,1.392-5.073,3.501
						c-0.912,2.107-0.475,4.455,0.922,6.094l-0.238,0.55l2.351,1.018c2.953,1.276,6.382-0.081,7.66-3.035
						C54.382,99.451,53.023,96.021,50.07,94.744z"/>
					<circle id="XMLID_210_" fill="#E7ECF3" cx="45.407" cy="99.073" r="5.826"/>
					<path id="XMLID_209_" fill="#FFFFFF" d="M41.951,103.76c0.349,0.256,0.729,0.481,1.143,0.661
						c0.414,0.18,0.839,0.302,1.266,0.379l4.503-10.412c-0.349-0.257-0.728-0.482-1.142-0.662c-0.415-0.179-0.839-0.3-1.266-0.379
						L41.951,103.76z"/>
				</g>
				<g id="XMLID_11_" clip-path="url(#XMLID_19_)">
					<path id="XMLID_82_" fill="#D1DDE8" d="M45.294,111.228l-0.591-2.491l-0.583,0.138c-1.369-1.661-3.605-2.501-5.84-1.97
						c-2.236,0.531-3.855,2.286-4.332,4.386l-0.583,0.138l0.592,2.491c0.744,3.131,3.884,5.065,7.015,4.321
						C44.103,117.497,46.038,114.358,45.294,111.228z"/>
					<circle id="XMLID_13_" fill="#E7ECF3" cx="39.035" cy="110.082" r="5.825"/>
					<path id="XMLID_12_" fill="#FFFFFF" d="M33.213,110.116c0.003,0.433,0.049,0.873,0.153,1.312
						c0.104,0.44,0.261,0.854,0.453,1.241l11.037-2.622c-0.003-0.434-0.049-0.872-0.153-1.311c-0.104-0.44-0.26-0.854-0.453-1.242
						L33.213,110.116z"/>
				</g>
			</g>
		</g>
		<g id="XMLID_198_">
			<path id="XMLID_202_" fill="#D1DDE8" d="M55.667,82.545l-0.592-2.491l-0.583,0.139c-1.37-1.661-3.605-2.5-5.841-1.969
				c-2.234,0.531-3.854,2.285-4.33,4.385l-0.583,0.139l0.591,2.491c0.743,3.131,3.884,5.065,7.015,4.322
				C54.475,88.816,56.41,85.676,55.667,82.545z"/>
			<circle id="XMLID_200_" fill="#E7ECF3" cx="49.407" cy="81.4" r="5.826"/>
			<path id="XMLID_199_" fill="#FFFFFF" d="M43.585,81.435c0.003,0.433,0.05,0.872,0.154,1.312c0.104,0.439,0.26,0.852,0.452,1.241
				l11.038-2.622c-0.002-0.433-0.049-0.872-0.153-1.312c-0.104-0.439-0.261-0.853-0.453-1.241L43.585,81.435z"/>
		</g>
		<g id="XMLID_271_">
			<path id="XMLID_274_" fill="#D1DDE8" d="M41.577,62.401l-0.592-2.492l-0.583,0.139c-1.369-1.66-3.604-2.5-5.84-1.969
				c-2.235,0.531-3.855,2.286-4.331,4.385l-0.583,0.138l0.592,2.492c0.744,3.131,3.883,5.066,7.014,4.322
				C40.386,68.672,42.32,65.531,41.577,62.401z"/>
			<circle id="XMLID_273_" fill="#E7ECF3" cx="35.317" cy="61.255" r="5.826"/>
			<path id="XMLID_272_" fill="#FFFFFF" d="M29.495,61.29c0.003,0.434,0.049,0.873,0.154,1.312c0.104,0.44,0.261,0.853,0.453,1.241
				l11.038-2.621c-0.003-0.433-0.049-0.873-0.154-1.313c-0.104-0.439-0.261-0.852-0.452-1.241L29.495,61.29z"/>
		</g>
		<g id="XMLID_1_">
			<path id="XMLID_1054_" fill="#D1DDE8" d="M32.038,76.356l-2.411-2.522l-0.658,0.743c-5.926-2.222-13.569,0.653-18.215,7.268
				c-3.688,5.252-4.514,11.479-2.648,16.236l-0.668,0.754l3.576,3.566l0.002-0.004c0.358,0.332,0.737,0.646,1.145,0.931
				c6.101,4.287,15.363,1.615,20.687-5.965C37.987,90.045,37.684,82.204,32.038,76.356z"/>
			<path id="XMLID_83_" fill="#E7ECF3" d="M17.616,105.314c-0.478-0.041-0.948-0.114-1.411-0.216l-8.841-9.701l-1.802-1.976
				l0.659-0.605l0.962,1.055L17.616,105.314z"/>
			<path id="XMLID_81_" fill="#E7ECF3" d="M21.199,105.165c-0.356,0.062-0.719,0.114-1.075,0.149L9.286,93.421l0.659-0.605
				L21.199,105.165z"/>
			<path id="XMLID_80_" fill="#E7ECF3" d="M24.171,104.331c-0.303,0.121-0.612,0.229-0.921,0.324L13.011,93.421l0.659-0.605
				L24.171,104.331z"/>
			<path id="XMLID_78_" fill="#E7ECF3" d="M26.746,103.074c-0.269,0.155-0.538,0.311-0.807,0.451l-9.21-10.104l0.666-0.605
				L26.746,103.074z"/>
			<path id="XMLID_77_" fill="#E7ECF3" d="M29.018,101.489c-0.235,0.187-0.47,0.369-0.712,0.543l-7.852-8.611l0.665-0.605
				L29.018,101.489z"/>
			<path id="XMLID_76_" fill="#E7ECF3" d="M31.028,99.607c-0.202,0.221-0.41,0.429-0.626,0.637l-6.225-6.823l0.665-0.605
				L31.028,99.607z"/>
			<path id="XMLID_75_" fill="#E7ECF3" d="M32.823,97.395c-0.175,0.248-0.356,0.498-0.544,0.732l-7.63-8.37l0.658-0.606
				L32.823,97.395z"/>
			<path id="XMLID_74_" fill="#E7ECF3" d="M34.37,94.886c-0.142,0.276-0.296,0.551-0.458,0.82l-9.264-10.165l0.658-0.605
				L34.37,94.886z"/>
			<path id="XMLID_73_" fill="#E7ECF3" d="M35.613,92.03c-0.107,0.316-0.222,0.631-0.356,0.941L24.648,81.333l0.658-0.605
				L35.613,92.03z"/>
			<path id="XMLID_71_" fill="#E7ECF3" d="M36.393,88.668c-0.047,0.376-0.108,0.753-0.182,1.129L24.648,77.118l0.658-0.605
				L36.393,88.668z"/>
			<path id="XMLID_72_" fill="#E7ECF3" d="M36.46,85.858L25.522,73.864l-0.874-0.962l0.658-0.604l1.56,1.714l9.399,10.306
				C36.366,84.829,36.427,85.34,36.46,85.858z"/>
			
				<ellipse id="XMLID_991_" transform="matrix(0.8183 0.5748 -0.5748 0.8183 52.9824 5.0406)" fill="#E7ECF3" cx="18.519" cy="86.322" rx="13.499" ry="16.772"/>
			<g id="XMLID_994_">
				<g>
					<path fill="#FFFFFF" d="M21.226,72.946L21.226,72.946c2.036,0,3.94,0.582,5.507,1.682c2.437,1.712,3.901,4.522,4.124,7.913
						c0.227,3.473-0.869,7.123-3.086,10.279c-2.979,4.242-7.562,6.876-11.959,6.876c-2.036,0-3.94-0.582-5.506-1.682
						c-2.437-1.712-3.901-4.522-4.124-7.914C5.954,86.63,7.05,82.979,9.267,79.823C12.246,75.582,16.829,72.946,21.226,72.946
						 M21.226,71.946c-4.566,0-9.493,2.626-12.777,7.302c-4.854,6.91-4.28,15.679,1.281,19.585c1.799,1.263,3.898,1.863,6.081,1.863
						c4.566,0,9.493-2.626,12.777-7.302c4.854-6.91,4.28-15.679-1.281-19.585C25.508,72.546,23.408,71.946,21.226,71.946
						L21.226,71.946z"/>
				</g>
			</g>
		</g>
	</g>
	<g id="XMLID_986_">
		<path id="XMLID_879_" fill="#5AC7DA" d="M154.231,159l-80.352-13.711c-2.097-0.357-3.568-2.267-3.379-4.385L80.698,26.336
			c0.189-2.119,1.973-3.738,4.101-3.72l81.509,0.698c2.385,0.02,4.241,2.07,4.032,4.443l-11.357,127.581
			C158.771,157.711,156.579,159.4,154.231,159z"/>
		<polygon id="XMLID_872_" fill="#E7ECF3" points="153.837,154.937 74.916,141.472 84.613,32.521 164.671,33.206 		"/>
		
			<linearGradient id="XMLID_20_" gradientUnits="userSpaceOnUse" x1="215.3672" y1="51.061" x2="68.6581" y2="51.061" gradientTransform="matrix(0.9961 0.0887 -0.0887 0.9961 -63.0176 23.0127)">
			<stop  offset="0.002" style="stop-color:#FFFFFF;stop-opacity:0"/>
			<stop  offset="1" style="stop-color:#245296"/>
		</linearGradient>
		<polygon id="XMLID_959_" fill="url(#XMLID_20_)" points="153.837,154.937 74.916,141.472 84.613,32.521 164.671,33.206 		"/>
		<path id="XMLID_880_" fill="#FFFFFF" d="M164.671,33.206l-80.058-0.685c0,0-10.62,89.691-17.414,95.44l79.959,17.454
			L164.671,33.206z"/>
		<path id="XMLID_878_" fill="#E7ECF3" d="M67.2,127.961c0,0-8.786-4.247-8.005-16.309l71.325,16.746
			c0,0,14.749,29.137,17.786,9.664l-1.146,7.353L67.2,127.961z"/>
		<g id="XMLID_908_">
			<circle id="XMLID_881_" fill="#245296" cx="111.066" cy="28.377" r="2.009"/>
			<circle id="XMLID_909_" fill="#245296" cx="139.738" cy="28.334" r="2.009"/>
		</g>
		<path id="XMLID_911_" fill="none" stroke="#245296" stroke-width="3" stroke-linejoin="round" stroke-miterlimit="10" d="
			M111.065,28.377l-0.635,7.14c-0.102,1.142,0.798,2.124,1.944,2.122l9.538-0.016l0.03-0.338c0.088-1.053,0.966-1.865,2.023-1.873
			l0.911-0.007c1.2-0.009,2.15,1.013,2.053,2.209l0,0l10.202-0.017c1.009-0.002,1.851-0.772,1.938-1.776l0.667-7.488"/>
		
			<line id="XMLID_912_" fill="none" stroke="#E7ECF3" stroke-width="3" stroke-linecap="round" stroke-miterlimit="10" x1="95.252" y1="50.459" x2="145.961" y2="51.796"/>
		
			<line id="XMLID_913_" fill="none" stroke="#E7ECF3" stroke-width="3" stroke-linecap="round" stroke-miterlimit="10" x1="94.574" y1="58.07" x2="145.284" y2="59.407"/>
		
			<line id="XMLID_914_" fill="none" stroke="#E7ECF3" stroke-width="3" stroke-linecap="round" stroke-miterlimit="10" x1="93.324" y1="65.631" x2="144.035" y2="66.968"/>
		
			<line id="XMLID_915_" fill="none" stroke="#E7ECF3" stroke-width="3" stroke-linecap="round" stroke-miterlimit="10" x1="92.073" y1="73.191" x2="142.783" y2="74.527"/>
		
			<line id="XMLID_916_" fill="none" stroke="#E7ECF3" stroke-width="3" stroke-linecap="round" stroke-miterlimit="10" x1="90.822" y1="80.751" x2="141.532" y2="82.088"/>
		<circle id="XMLID_205_" fill="#E7ECF3" cx="107.38" cy="99" r="8.013"/>
		<path id="XMLID_276_" fill="none" stroke="#D1DDE8" stroke-width="3" stroke-linecap="round" stroke-miterlimit="10" d="
			M92.569,104.035c-2.235-2.729-3.249-6.423-2.719-9.91c0.128-0.847,0.469-1.819,1.292-2.054c1.213-0.345,2.086,1.136,2.476,2.336
			c0.503,1.549,1.006,3.098,1.509,4.648c0.095,0.292,0.208,0.609,0.469,0.771c1.228,0.765,1.806-2.757,3.155-2.232
			c0.737,0.287,0.506,1.424,0.944,2.082c0.492,0.74,1.636,0.613,2.413,0.184c0.776-0.428,1.479-1.085,2.363-1.176
			c0.851-0.087,1.687,0.378,2.536,0.286c1.479-0.159,2.636-1.937,4.066-1.535"/>
	</g>
	<g id="XMLID_1026_">
		<path id="XMLID_1029_" fill="#FFFFFF" d="M106.798,147.614l-12.445-4.788c-2.262-0.871-4.801,0.257-5.671,2.519l0,0
			c-0.87,2.262,0.258,4.801,2.52,5.67l12.445,4.789c2.262,0.87,4.801-0.257,5.672-2.521l0,0
			C110.187,151.021,109.059,148.483,106.798,147.614z"/>
		<path id="XMLID_1028_" fill="#245296" d="M106.798,147.614l-6.223-2.396l-3.151,8.19l6.222,2.395
			c2.262,0.87,4.801-0.257,5.672-2.521C110.187,151.021,109.059,148.483,106.798,147.614z"/>
		
			<linearGradient id="XMLID_21_" gradientUnits="userSpaceOnUse" x1="365.7021" y1="-98.9268" x2="379.4178" y2="-76.1266" gradientTransform="matrix(0.9333 0.3591 -0.3591 0.9333 -280.3672 98.1963)">
			<stop  offset="0.002" style="stop-color:#FFFFFF;stop-opacity:0"/>
			<stop  offset="1" style="stop-color:#245296"/>
		</linearGradient>
		<path id="XMLID_1027_" fill="url(#XMLID_21_)" d="M106.679,153.359l-16.088-6.191c-0.835-0.32-1.515-0.871-1.998-1.55
			c-0.684,2.189,0.438,4.562,2.609,5.396l12.445,4.789c2.173,0.836,4.594-0.174,5.555-2.258
			C108.388,153.728,107.515,153.681,106.679,153.359z"/>
	</g>
	<g id="XMLID_206_">
		<path id="XMLID_275_" fill="#FFFFFF" d="M125.379,132.273l-12.83,3.628c-2.333,0.659-3.688,3.084-3.029,5.416l0,0
			c0.658,2.331,3.083,3.687,5.417,3.027l12.831-3.627c2.331-0.659,3.688-3.084,3.028-5.415l0,0
			C130.137,132.97,127.712,131.613,125.379,132.273z"/>
		<path id="XMLID_208_" fill="#245296" d="M125.379,132.273l-6.415,1.814l2.387,8.444l6.417-1.814
			c2.331-0.659,3.688-3.084,3.028-5.415C130.137,132.97,127.712,131.613,125.379,132.273z"/>
		
			<linearGradient id="XMLID_22_" gradientUnits="userSpaceOnUse" x1="-79.4712" y1="152.3164" x2="-65.7555" y2="175.1166" gradientTransform="matrix(0.9623 -0.2721 0.2721 0.9623 145.8896 -38.0752)">
			<stop  offset="0.002" style="stop-color:#FFFFFF;stop-opacity:0"/>
			<stop  offset="1" style="stop-color:#245296"/>
		</linearGradient>
		<path id="XMLID_207_" fill="url(#XMLID_22_)" d="M128.728,136.941l-16.589,4.69c-0.861,0.244-1.734,0.211-2.528-0.043
			c0.767,2.163,3.086,3.39,5.326,2.756l12.831-3.627c2.237-0.632,3.571-2.894,3.091-5.137
			C130.316,136.213,129.589,136.698,128.728,136.941z"/>
	</g>
	<polygon id="XMLID_712_" fill="#5AC7DA" points="59.186,32.755 54.765,32.755 54.765,28.334 49.84,28.334 49.84,32.755 
		45.42,32.755 45.42,37.68 49.84,37.68 49.84,42.1 54.765,42.1 54.765,37.68 59.186,37.68 	"/>
	<polygon id="XMLID_736_" fill="#245296" points="71.733,50.512 68.732,50.512 68.732,47.511 65.388,47.511 65.388,50.512 
		62.387,50.512 62.387,53.856 65.388,53.856 65.388,56.857 68.732,56.857 68.732,53.856 71.733,53.856 	"/>
	<polygon id="XMLID_894_" fill="#5AC7DA" points="189.469,42.688 186.467,42.688 186.467,39.687 183.123,39.687 183.123,42.688 
		180.123,42.688 180.123,46.032 183.123,46.032 183.123,49.033 186.467,49.033 186.467,46.032 189.469,46.032 	"/>
	<g id="XMLID_902_">
		<path id="XMLID_763_" fill="#245296" d="M172.268,131.982l21.013-61.148c0.433-1.258-0.367-2.673-1.786-3.16L156.17,55.536
			c-1.419-0.487-2.919,0.137-3.351,1.396l-21.013,61.149c-0.435,1.258,0.367,2.673,1.786,3.16l35.324,12.138
			C170.336,133.865,171.836,133.241,172.268,131.982z"/>
		<path id="XMLID_901_" opacity="0.6" fill="#245296" d="M166.441,66.779l-8.061-2.739c-1.465-0.498-3.055,0.286-3.553,1.751l0,0
			c-0.498,1.465,0.286,3.056,1.751,3.554l8.061,2.739c1.465,0.497,3.055-0.286,3.554-1.751l0,0
			C168.69,68.868,167.906,67.276,166.441,66.779z"/>
		<path id="XMLID_900_" opacity="0.6" fill="#245296" d="M184.514,72.989l-8.06-2.739c-1.466-0.498-3.058,0.286-3.554,1.751l0,0
			c-0.498,1.465,0.285,3.056,1.751,3.554l8.06,2.739c1.465,0.497,3.057-0.286,3.556-1.751l0,0
			C186.763,75.078,185.979,73.487,184.514,72.989z"/>
		<path id="XMLID_904_" opacity="0.6" fill="#245296" d="M163.169,76.311l-8.063-2.739c-1.465-0.498-3.055,0.286-3.554,1.751l0,0
			c-0.496,1.465,0.287,3.056,1.753,3.554l8.06,2.739c1.466,0.498,3.056-0.287,3.554-1.751l0,0
			C165.414,78.399,164.631,76.808,163.169,76.311z"/>
		<path id="XMLID_903_" opacity="0.6" fill="#245296" d="M181.239,82.52l-8.061-2.739c-1.465-0.498-3.057,0.286-3.553,1.751l0,0
			c-0.5,1.465,0.284,3.056,1.749,3.554l8.061,2.739c1.465,0.498,3.057-0.286,3.553-1.751l0,0
			C183.488,84.609,182.704,83.018,181.239,82.52z"/>
		<path id="XMLID_906_" opacity="0.6" fill="#245296" d="M159.891,85.841l-8.061-2.739c-1.465-0.498-3.055,0.286-3.554,1.751l0,0
			c-0.496,1.465,0.288,3.056,1.753,3.554l8.061,2.74c1.464,0.498,3.054-0.287,3.554-1.751l0,0
			C162.14,87.93,161.355,86.339,159.891,85.841z"/>
		<path id="XMLID_905_" opacity="0.6" fill="#245296" d="M177.964,92.052l-8.061-2.739c-1.465-0.498-3.057,0.287-3.554,1.751l0,0
			c-0.498,1.464,0.285,3.056,1.75,3.554l8.063,2.738c1.463,0.499,3.056-0.285,3.554-1.75l0,0
			C180.213,94.14,179.429,92.549,177.964,92.052z"/>
		<path id="XMLID_910_" opacity="0.6" fill="#245296" d="M156.513,95.673l-8.06-2.739c-1.466-0.498-3.056,0.286-3.554,1.751l0,0
			c-0.497,1.464,0.287,3.057,1.749,3.554l8.063,2.738c1.462,0.498,3.055-0.286,3.554-1.751l0,0
			C158.762,97.762,157.979,96.172,156.513,95.673z"/>
		<path id="XMLID_907_" opacity="0.6" fill="#245296" d="M174.586,101.883l-8.063-2.738c-1.462-0.498-3.055,0.286-3.554,1.751l0,0
			c-0.496,1.465,0.287,3.056,1.753,3.553l8.06,2.739c1.466,0.498,3.058-0.285,3.554-1.749l0,0
			C176.834,103.972,176.051,102.381,174.586,101.883z"/>
		<path id="XMLID_918_" opacity="0.6" fill="#245296" d="M153.161,105.423l-8.06-2.738c-1.465-0.498-3.055,0.285-3.554,1.75l0,0
			c-0.496,1.466,0.287,3.057,1.753,3.554l8.06,2.74c1.466,0.498,3.056-0.287,3.554-1.751l0,0
			C155.412,107.512,154.629,105.921,153.161,105.423z"/>
		<path id="XMLID_917_" opacity="0.6" fill="#245296" d="M171.235,111.634l-8.061-2.74c-1.465-0.497-3.058,0.287-3.554,1.751l0,0
			c-0.499,1.466,0.284,3.057,1.75,3.554l8.063,2.74c1.463,0.498,3.055-0.287,3.551-1.751l0,0
			C173.484,113.722,172.7,112.131,171.235,111.634z"/>
		<path id="XMLID_920_" opacity="0.6" fill="#245296" d="M149.889,114.955l-8.063-2.74c-1.465-0.497-3.055,0.287-3.554,1.751l0,0
			c-0.497,1.467,0.288,3.058,1.752,3.555l8.062,2.738c1.464,0.498,3.056-0.285,3.553-1.75l0,0
			C152.138,117.044,151.352,115.452,149.889,114.955z"/>
		<path id="XMLID_919_" opacity="0.6" fill="#245296" d="M167.959,121.165l-8.06-2.739c-1.465-0.499-3.057,0.286-3.554,1.751l0,0
			c-0.498,1.465,0.285,3.057,1.75,3.554l8.061,2.738c1.468,0.499,3.058-0.286,3.554-1.75l0,0
			C170.208,123.254,169.425,121.662,167.959,121.165z"/>
		<g id="XMLID_847_">
			<g id="XMLID_840_">
				<g id="XMLID_841_">
					<path id="XMLID_844_" fill="#FFFFFF" d="M166.978,65.222l-8.062-2.739c-1.464-0.498-3.056,0.286-3.552,1.751l0,0
						c-0.499,1.465,0.284,3.056,1.749,3.554l8.061,2.739c1.465,0.498,3.058-0.286,3.554-1.751l0,0
						C169.227,67.311,168.441,65.72,166.978,65.222z"/>
					
						<linearGradient id="XMLID_23_" gradientUnits="userSpaceOnUse" x1="415.9561" y1="-132.7671" x2="424.7136" y2="-118.2091" gradientTransform="matrix(0.9468 0.3217 -0.3217 0.9468 -276.417 50.7246)">
						<stop  offset="0.002" style="stop-color:#FFFFFF;stop-opacity:0"/>
						<stop  offset="1" style="stop-color:#245296"/>
					</linearGradient>
					<path id="XMLID_842_" fill="url(#XMLID_23_)" d="M167.047,68.89l-10.421-3.541c-0.541-0.185-0.988-0.518-1.313-0.939
						c-0.381,1.414,0.394,2.9,1.801,3.378l8.061,2.739c1.407,0.478,2.926-0.228,3.487-1.581
						C168.147,69.082,167.588,69.074,167.047,68.89z"/>
				</g>
				<g id="XMLID_843_">
					<path id="XMLID_846_" fill="#FFFFFF" d="M185.049,71.432l-8.061-2.739c-1.465-0.498-3.055,0.287-3.554,1.751l0,0
						c-0.498,1.465,0.285,3.056,1.751,3.554l8.06,2.739c1.468,0.498,3.057-0.286,3.556-1.75l0,0
						C187.297,73.521,186.514,71.929,185.049,71.432z"/>
					
						<linearGradient id="XMLID_24_" gradientUnits="userSpaceOnUse" x1="435.0664" y1="-132.7012" x2="443.825" y2="-118.1415" gradientTransform="matrix(0.9468 0.3217 -0.3217 0.9468 -276.417 50.7246)">
						<stop  offset="0.002" style="stop-color:#FFFFFF;stop-opacity:0"/>
						<stop  offset="1" style="stop-color:#245296"/>
					</linearGradient>
					<path id="XMLID_845_" fill="url(#XMLID_24_)" d="M185.119,75.1l-10.422-3.541c-0.541-0.184-0.988-0.519-1.313-0.939
						c-0.381,1.415,0.396,2.9,1.802,3.378l8.06,2.739c1.407,0.478,2.928-0.228,3.487-1.581
						C186.218,75.292,185.661,75.284,185.119,75.1z"/>
				</g>
			</g>
			<g id="XMLID_848_">
				<g id="XMLID_852_">
					<path id="XMLID_854_" fill="#FFFFFF" d="M163.651,74.904l-8.063-2.739c-1.464-0.498-3.054,0.286-3.553,1.751l0,0
						c-0.496,1.465,0.287,3.056,1.752,3.554l8.061,2.739c1.465,0.498,3.055-0.286,3.554-1.751l0,0
						C165.9,76.993,165.116,75.401,163.651,74.904z"/>
					
						<linearGradient id="XMLID_25_" gradientUnits="userSpaceOnUse" x1="415.9219" y1="-122.5293" x2="424.6794" y2="-107.9713" gradientTransform="matrix(0.9468 0.3217 -0.3217 0.9468 -276.417 50.7246)">
						<stop  offset="0.002" style="stop-color:#FFFFFF;stop-opacity:0"/>
						<stop  offset="1" style="stop-color:#245296"/>
					</linearGradient>
					<path id="XMLID_853_" fill="url(#XMLID_25_)" d="M163.721,78.572L153.3,75.03c-0.541-0.184-0.988-0.518-1.313-0.938
						c-0.381,1.414,0.394,2.899,1.801,3.378l8.061,2.739c1.407,0.478,2.926-0.228,3.486-1.581
						C164.819,78.763,164.262,78.755,163.721,78.572z"/>
				</g>
				<g id="XMLID_849_">
					<path id="XMLID_851_" fill="#FFFFFF" d="M181.722,81.114l-8.06-2.739c-1.466-0.498-3.058,0.286-3.554,1.751l0,0
						c-0.499,1.465,0.285,3.056,1.75,3.554l8.061,2.739c1.465,0.498,3.057-0.286,3.554-1.751l0,0
						C183.971,83.203,183.188,81.611,181.722,81.114z"/>
					
						<linearGradient id="XMLID_26_" gradientUnits="userSpaceOnUse" x1="435.0313" y1="-122.4634" x2="443.7888" y2="-107.9054" gradientTransform="matrix(0.9468 0.3217 -0.3217 0.9468 -276.417 50.7246)">
						<stop  offset="0.002" style="stop-color:#FFFFFF;stop-opacity:0"/>
						<stop  offset="1" style="stop-color:#245296"/>
					</linearGradient>
					<path id="XMLID_850_" fill="url(#XMLID_26_)" d="M181.791,84.782l-10.42-3.542c-0.541-0.184-0.989-0.518-1.313-0.939
						c-0.382,1.415,0.396,2.9,1.801,3.378l8.061,2.739c1.406,0.478,2.928-0.228,3.486-1.581
						C182.892,84.973,182.334,84.965,181.791,84.782z"/>
				</g>
			</g>
			<g id="XMLID_855_">
				<g id="XMLID_859_">
					<path id="XMLID_861_" fill="#FFFFFF" d="M160.322,84.585l-8.061-2.739c-1.465-0.498-3.054,0.286-3.554,1.751l0,0
						c-0.496,1.464,0.288,3.055,1.753,3.554l8.061,2.739c1.465,0.498,3.055-0.286,3.554-1.751l0,0
						C162.573,86.674,161.787,85.083,160.322,84.585z"/>
					
						<linearGradient id="XMLID_27_" gradientUnits="userSpaceOnUse" x1="415.8857" y1="-112.291" x2="424.6433" y2="-97.733" gradientTransform="matrix(0.9468 0.3217 -0.3217 0.9468 -276.417 50.7246)">
						<stop  offset="0.002" style="stop-color:#FFFFFF;stop-opacity:0"/>
						<stop  offset="1" style="stop-color:#245296"/>
					</linearGradient>
					<path id="XMLID_860_" fill="url(#XMLID_27_)" d="M160.395,88.253l-10.421-3.542c-0.544-0.183-0.989-0.517-1.314-0.938
						c-0.38,1.414,0.395,2.899,1.802,3.378l8.061,2.739c1.407,0.478,2.925-0.228,3.484-1.581
						C161.493,88.445,160.935,88.437,160.395,88.253z"/>
				</g>
				<g id="XMLID_856_">
					<path id="XMLID_858_" fill="#FFFFFF" d="M178.396,90.795l-8.06-2.739c-1.466-0.498-3.058,0.286-3.554,1.751l0,0
						c-0.499,1.465,0.284,3.056,1.75,3.554l8.06,2.738c1.465,0.498,3.058-0.286,3.554-1.751l0,0
						C180.645,92.884,179.861,91.293,178.396,90.795z"/>
					
						<linearGradient id="XMLID_28_" gradientUnits="userSpaceOnUse" x1="434.9961" y1="-112.2266" x2="443.7536" y2="-97.6686" gradientTransform="matrix(0.9468 0.3217 -0.3217 0.9468 -276.417 50.7246)">
						<stop  offset="0.002" style="stop-color:#FFFFFF;stop-opacity:0"/>
						<stop  offset="1" style="stop-color:#245296"/>
					</linearGradient>
					<path id="XMLID_857_" fill="url(#XMLID_28_)" d="M178.465,94.463l-10.421-3.542c-0.54-0.184-0.988-0.518-1.313-0.938
						c-0.381,1.414,0.394,2.899,1.802,3.378l8.06,2.738c1.407,0.478,2.926-0.227,3.487-1.581
						C179.565,94.654,179.006,94.647,178.465,94.463z"/>
				</g>
			</g>
			<g id="XMLID_862_">
				<g id="XMLID_866_">
					<path id="XMLID_868_" fill="#FFFFFF" d="M156.996,94.267l-8.061-2.74c-1.465-0.498-3.055,0.287-3.554,1.751l0,0
						c-0.496,1.465,0.288,3.056,1.751,3.554l8.063,2.74c1.463,0.497,3.054-0.287,3.553-1.751l0,0
						C159.244,96.356,158.461,94.765,156.996,94.267z"/>
					
						<linearGradient id="XMLID_29_" gradientUnits="userSpaceOnUse" x1="415.8506" y1="-102.0542" x2="424.6081" y2="-87.4962" gradientTransform="matrix(0.9468 0.3217 -0.3217 0.9468 -276.417 50.7246)">
						<stop  offset="0.002" style="stop-color:#FFFFFF;stop-opacity:0"/>
						<stop  offset="1" style="stop-color:#245296"/>
					</linearGradient>
					<path id="XMLID_867_" fill="url(#XMLID_29_)" d="M157.066,97.934l-10.42-3.541c-0.541-0.184-0.99-0.518-1.315-0.938
						c-0.379,1.415,0.396,2.9,1.802,3.378l8.063,2.74c1.404,0.478,2.925-0.229,3.484-1.581
						C158.165,98.127,157.608,98.118,157.066,97.934z"/>
				</g>
				<g id="XMLID_863_">
					<path id="XMLID_865_" fill="#FFFFFF" d="M175.069,100.476l-8.063-2.737c-1.462-0.499-3.054,0.285-3.553,1.75l0,0
						c-0.496,1.465,0.287,3.056,1.752,3.553l8.061,2.739c1.465,0.498,3.058-0.285,3.554-1.751l0,0
						C177.318,102.565,176.534,100.974,175.069,100.476z"/>
					
						<linearGradient id="XMLID_30_" gradientUnits="userSpaceOnUse" x1="434.9619" y1="-101.9868" x2="443.7184" y2="-87.4305" gradientTransform="matrix(0.9468 0.3217 -0.3217 0.9468 -276.417 50.7246)">
						<stop  offset="0.002" style="stop-color:#FFFFFF;stop-opacity:0"/>
						<stop  offset="1" style="stop-color:#245296"/>
					</linearGradient>
					<path id="XMLID_864_" fill="url(#XMLID_30_)" d="M175.139,104.145l-10.421-3.542c-0.541-0.184-0.988-0.517-1.313-0.937
						c-0.381,1.413,0.394,2.899,1.801,3.376l8.061,2.739c1.407,0.479,2.926-0.227,3.486-1.581
						C176.237,104.336,175.68,104.328,175.139,104.145z"/>
				</g>
			</g>
			<g id="XMLID_869_">
				<g id="XMLID_883_">
					<path id="XMLID_885_" fill="#FFFFFF" d="M153.669,103.948l-8.06-2.74c-1.465-0.497-3.058,0.288-3.554,1.753l0,0
						c-0.499,1.464,0.285,3.056,1.75,3.554l8.063,2.738c1.465,0.498,3.055-0.285,3.554-1.751l0,0
						C155.918,106.038,155.135,104.446,153.669,103.948z"/>
					
						<linearGradient id="XMLID_31_" gradientUnits="userSpaceOnUse" x1="415.8145" y1="-91.8174" x2="424.572" y2="-77.2594" gradientTransform="matrix(0.9468 0.3217 -0.3217 0.9468 -276.417 50.7246)">
						<stop  offset="0.002" style="stop-color:#FFFFFF;stop-opacity:0"/>
						<stop  offset="1" style="stop-color:#245296"/>
					</linearGradient>
					<path id="XMLID_884_" fill="url(#XMLID_31_)" d="M153.74,107.617l-10.42-3.542c-0.543-0.184-0.991-0.518-1.313-0.939
						c-0.384,1.415,0.395,2.901,1.799,3.379l8.063,2.738c1.404,0.478,2.926-0.228,3.484-1.58
						C154.839,107.809,154.281,107.801,153.74,107.617z"/>
				</g>
				<g id="XMLID_870_">
					<path id="XMLID_882_" fill="#FFFFFF" d="M171.742,110.158l-8.063-2.739c-1.463-0.498-3.054,0.285-3.554,1.752l0,0
						c-0.496,1.464,0.288,3.057,1.753,3.554l8.061,2.738c1.465,0.498,3.055-0.286,3.554-1.751l0,0
						C173.989,112.247,173.205,110.656,171.742,110.158z"/>
					
						<linearGradient id="XMLID_32_" gradientUnits="userSpaceOnUse" x1="434.9258" y1="-91.75" x2="443.6823" y2="-77.1937" gradientTransform="matrix(0.9468 0.3217 -0.3217 0.9468 -276.417 50.7246)">
						<stop  offset="0.002" style="stop-color:#FFFFFF;stop-opacity:0"/>
						<stop  offset="1" style="stop-color:#245296"/>
					</linearGradient>
					<path id="XMLID_871_" fill="url(#XMLID_32_)" d="M171.813,113.826l-10.422-3.541c-0.541-0.185-0.988-0.518-1.313-0.938
						c-0.38,1.414,0.395,2.899,1.802,3.378l8.061,2.738c1.407,0.478,2.925-0.228,3.486-1.58
						C172.911,114.019,172.353,114.011,171.813,113.826z"/>
				</g>
			</g>
			<g id="XMLID_886_">
				<g id="XMLID_890_">
					<path id="XMLID_892_" fill="#FFFFFF" d="M150.343,113.631l-8.06-2.74c-1.466-0.497-3.058,0.286-3.554,1.752l0,0
						c-0.499,1.464,0.284,3.056,1.75,3.554l8.06,2.738c1.465,0.497,3.058-0.286,3.554-1.752l0,0
						C152.592,115.72,151.809,114.129,150.343,113.631z"/>
					
						<linearGradient id="XMLID_33_" gradientUnits="userSpaceOnUse" x1="415.7803" y1="-81.5786" x2="424.5378" y2="-67.0206" gradientTransform="matrix(0.9468 0.3217 -0.3217 0.9468 -276.417 50.7246)">
						<stop  offset="0.002" style="stop-color:#FFFFFF;stop-opacity:0"/>
						<stop  offset="1" style="stop-color:#245296"/>
					</linearGradient>
					<path id="XMLID_891_" fill="url(#XMLID_33_)" d="M150.414,117.298l-10.423-3.542c-0.54-0.184-0.988-0.517-1.313-0.938
						c-0.381,1.415,0.396,2.9,1.802,3.378l8.06,2.738c1.407,0.479,2.929-0.228,3.487-1.58
						C151.513,117.49,150.955,117.481,150.414,117.298z"/>
				</g>
				<g id="XMLID_887_">
					<path id="XMLID_889_" fill="#FFFFFF" d="M168.416,119.839l-8.063-2.738c-1.465-0.497-3.055,0.286-3.554,1.752l0,0
						c-0.496,1.464,0.288,3.055,1.753,3.554l8.061,2.738c1.464,0.498,3.056-0.286,3.553-1.751l0,0
						C170.665,121.93,169.879,120.338,168.416,119.839z"/>
					
						<linearGradient id="XMLID_34_" gradientUnits="userSpaceOnUse" x1="434.8916" y1="-81.5127" x2="443.6481" y2="-66.9564" gradientTransform="matrix(0.9468 0.3217 -0.3217 0.9468 -276.417 50.7246)">
						<stop  offset="0.002" style="stop-color:#FFFFFF;stop-opacity:0"/>
						<stop  offset="1" style="stop-color:#245296"/>
					</linearGradient>
					<path id="XMLID_888_" fill="url(#XMLID_34_)" d="M168.484,123.508l-10.42-3.542c-0.541-0.184-0.988-0.517-1.313-0.938
						c-0.38,1.413,0.395,2.9,1.802,3.378l8.061,2.738c1.406,0.478,2.925-0.228,3.486-1.581
						C169.585,123.699,169.025,123.691,168.484,123.508z"/>
				</g>
			</g>
		</g>
	</g>
	<circle id="XMLID_342_" fill="#5AC7DA" cx="172.331" cy="143.972" r="3.786"/>
	<circle id="XMLID_893_" fill="#5AC7DA" cx="25.979" cy="131.349" r="3.786"/>
	<circle id="XMLID_344_" fill="#5AC7DA" cx="179.715" cy="151.93" r="2.005"/>
	<circle id="XMLID_346_" fill="#5AC7DA" cx="17.836" cy="124.76" r="2.005"/>
	<ellipse id="XMLID_765_" opacity="0.7" fill="#E7ECF3" cx="105.217" cy="169.552" rx="84.252" ry="3.242"/>
</g>
</svg>
