<?xml version="1.0" standalone="no"?>
<!DOCTYPE svg PUBLIC "-//W3C//DTD SVG 1.1//EN" "http://www.w3.org/Graphics/SVG/1.1/DTD/svg11.dtd" >
<svg xmlns="http://www.w3.org/2000/svg">
<metadata>Generated by IcoMoon</metadata>
<defs>
<font id="icomoon" horiz-adv-x="1024">
<font-face units-per-em="1024" ascent="960" descent="-64" />
<missing-glyph horiz-adv-x="1024" />
<glyph unicode="&#x20;" horiz-adv-x="512" d="" />
<glyph unicode="&#xe900;" glyph-name="accsettings" d="M466.944-64c-0.518 0-1.089 0-1.607 0.052-22.658 1.867-42.671 20.169-46.56 42.515l-17.577 104.059c-1.089 6.585-8.659 15.503-14.932 17.732l-30.331 12.288c-9.177 4.459-20.169 1.452-24.006-1.296l-86.016-61.077c-17.784-12.651-46.456-11.355-63.099 2.903l-64.706 64.655c-15.762 18.147-17.11 45.834-4.044 64.084l61.129 85.964c3.578 5.081 4.407 16.28 1.555 21.88 0 0.052-1.763 3.266-7.207 16.54-5.963 14.414-6.585 17.006-6.585 17.006-1.763 5.496-10.214 12.91-16.591 14.051l-103.955 17.525c-22.243 3.785-40.856 24.369-42.36 46.871l-0.052 91.253c1.867 24.058 20.636 44.538 42.775 48.115l103.852 17.628c6.377 1.089 15.347 8.71 17.525 14.932l12.651 30.435c3.318 6.999 2.333 18.562-1.555 24.006l-61.077 85.86c-12.91 18.302-11.614 45.989 2.852 63.099l64.81 64.81c18.147 15.969 45.937 16.643 63.929 4.044l86.068-61.181c3.37-2.437 16.228-4.563 22.139-1.452 0.156 0.052 2.229 1.193 16.28 6.999 13.843 5.755 16.125 6.481 16.125 6.481 6.325 1.97 13.792 10.473 14.829 16.695l17.628 104.007c3.837 22.295 24.42 40.908 46.871 42.412l91.305 0.052c24.265-1.867 44.33-20.117 48.271-42.515l17.577-104.059c1.089-6.481 8.659-15.451 14.984-17.68l30.383-12.392c9.177-4.355 20.376-1.089 23.902 1.348l86.016 61.025c17.473 12.547 46.352 11.355 63.047-2.852l64.758-64.706c15.658-17.991 17.058-45.678 4.044-64.032l-61.233-85.912c-3.629-5.237-4.459-16.436-1.504-22.139 0.052-0.052 1.141-2.178 7.051-16.073 5.807-14.051 6.533-16.436 6.533-16.436 1.918-6.222 10.473-13.688 16.747-14.777l104.007-17.525c22.139-3.785 40.701-24.317 42.36-46.767l0.052-91.46c-1.918-24.109-20.636-44.486-42.775-48.115l-103.8-17.732c-6.533-1.089-15.347-8.555-17.577-14.88l-12.651-30.435c-3.266-6.844-2.281-18.665 1.504-24.058l61.077-85.653c13.118-18.717 11.873-45.886-2.852-63.203l-64.706-64.81c-9.851-8.71-21.88-13.014-34.635-13.014v0c-10.681 0-21.102 3.215-29.346 8.918l-86.068 61.233c-3.889 2.696-16.54 4.355-22.087 1.504-0.363-0.156-2.437-1.244-16.228-6.999-13.325-5.444-15.399-6.274-15.399-6.274-7.155-2.229-14.569-10.681-15.606-16.799l-17.68-104.163c-3.837-22.243-24.369-40.856-46.715-42.412l-91.512-0.104zM345.723 153.762c9.592 0 18.562-1.918 26.080-5.6l28.205-11.458c18.665-6.533 36.034-27.117 39.508-47.597l17.577-103.955c0.83-4.511 6.17-9.54 10.888-10.266l89.075 0.052c3.318 0.311 8.97 5.392 9.747 10.11l17.628 104.059c3.422 20.687 21.258 41.012 41.427 47.182l13.066 5.392c10.214 4.252 13.066 5.548 13.688 5.807 16.488 8.814 45.626 7.311 62.062-4.614l85.912-61.077c3.474-2.385 11.718-2.229 15.036 0.726l62.684 62.788c2.178 2.592 2.541 10.266-0.311 14.362l-61.077 85.601c-11.977 17.058-14.206 43.863-5.237 62.477l11.873 28.465c6.481 18.562 27.013 35.879 47.337 39.301l103.904 17.732c4.77 0.778 9.955 6.533 10.318 11.303v88.453c-0.311 3.37-5.392 9.073-10.059 9.851l-104.059 17.525c-20.791 3.629-41.064 21.361-47.234 41.323-0.052 0.052-1.141 3.059-5.392 13.221-4.252 10.007-5.548 12.91-5.859 13.532-9.385 18.147-7.57 44.952 4.511 62.114l61.284 86.068c2.748 3.837 2.333 11.407-0.83 15.036l-62.684 62.633c-1.244 0.985-10.577 2.178-14.051-0.207l-86.068-61.077c-16.228-11.614-43.967-13.999-62.27-5.185l-28.413 11.614c-18.562 6.533-35.931 27.065-39.456 47.441l-17.577 104.007c-0.83 4.666-6.585 9.903-11.458 10.266l-88.453-0.104c-3.37-0.259-9.022-5.392-9.851-10.11l-17.628-103.955c-3.526-20.791-21.361-41.064-41.375-47.234 0 0-2.955-1.141-13.014-5.34-10.11-4.2-12.962-5.496-13.636-5.807-17.058-8.866-45.678-7.207-62.218 4.459l-85.964 61.077c-3.422 2.489-11.718 2.178-14.984-0.674l-62.788-62.788c-2.074-2.541-2.437-10.318 0.311-14.258l61.025-85.809c12.029-16.902 14.31-43.76 5.289-62.425l-11.77-28.413c-6.481-18.613-27.013-35.983-47.441-39.405l-103.904-17.628c-4.666-0.726-9.903-6.533-10.266-11.303l0.052-88.453c0.259-3.318 5.444-9.073 10.059-9.799l104.007-17.577c20.636-3.578 40.908-21.258 47.285-41.116 0.259-0.881 1.4-3.94 5.34-13.377 3.837-9.385 5.237-12.392 5.651-13.273 9.696-18.51 7.829-45.419-4.252-62.529l-61.181-86.016c-2.696-3.733-2.229-11.51 0.83-15.088l62.633-62.581c1.348-1.037 10.577-2.229 14.155 0.311l86.016 61.077c9.488 6.844 22.761 10.733 36.294 10.733zM512 200.529c-136.464 0-247.523 111.059-247.523 247.471 0 136.464 111.059 247.523 247.523 247.523s247.471-111.059 247.471-247.523c0-136.464-111.007-247.471-247.471-247.471zM512 656.637c-115.051 0-208.637-93.586-208.637-208.637s93.586-208.585 208.637-208.585 208.585 93.586 208.585 208.585-93.534 208.637-208.585 208.637z" />
<glyph unicode="&#xe901;" glyph-name="allfiles" horiz-adv-x="1207" d="M1142.906-64h-1078.471c-35.519 0-64.436 28.917-64.436 64.497v589.457c0 35.458 28.917 64.374 64.436 64.374h1078.471c35.58 0 64.497-28.917 64.497-64.374v-589.457c0-35.58-28.917-64.497-64.497-64.497zM64.436 608.478c-10.271 0-18.585-8.314-18.585-18.524v-589.457c0-10.271 8.314-18.646 18.585-18.646h1078.471c10.271 0 18.646 8.375 18.646 18.646v589.457c0 10.209-8.375 18.524-18.646 18.524h-1078.471zM22.925 667.105c-12.655 0-22.925 10.271-22.925 22.925 0 18.463 11.371 68.47 27.449 137.002 6.786 28.917 12.716 53.982 14.367 64.252 6.358 41.694 31.484 68.715 64.069 68.715h356.719c32.646 0 57.833-27.021 64.13-68.898 4.402-28.55 27.327-96.653 40.593-112.304h575.641c35.58 0 64.497-32.462 64.497-72.322v-13.939c0-12.655-10.271-22.925-22.925-22.925s-22.987 10.271-22.987 22.925v13.939c0 14.122-8.742 26.471-18.646 26.471h-580.776c-52.148 0-80.453 149.718-80.697 151.246-2.262 14.917-9.476 29.956-18.829 29.956h-356.719c-9.354 0-16.506-15.039-18.768-29.956-1.773-10.882-7.886-37.231-15.039-67.615-9.781-41.877-26.227-111.937-26.227-126.548 0-12.655-10.271-22.925-22.925-22.925z" />
<glyph unicode="&#xe902;" glyph-name="backacct" horiz-adv-x="1487" d="M38.628 409.321c-9.889 0-19.777 3.811-27.297 11.331-15.039 15.039-15.039 39.555 0 54.594l473.424 473.424c15.039 15.142 39.555 15.039 54.594 0s15.039-39.555 0-54.594l-473.424-473.424c-7.52-7.52-17.511-11.331-27.297-11.331zM512.052-64.103c-9.889 0-19.777 3.708-27.297 11.228l-473.424 473.527c-15.039 15.039-15.039 39.555 0 54.594s39.555 15.039 54.594 0l473.527-473.321c15.039-15.039 15.039-39.658 0-54.697-7.623-7.52-17.408-11.331-27.4-11.331zM1448.083 409.321h-1409.455c-21.323 0-38.628 17.305-38.628 38.628s17.305 38.628 38.628 38.628h1409.558c21.323 0 38.628-17.305 38.628-38.628s-17.408-38.628-38.731-38.628z" />
<glyph unicode="&#xe903;" glyph-name="dashboard" horiz-adv-x="1471" d="M1442.909-64h-1414.982c-15.416 0-27.927 12.511-27.927 27.927v968.145c0 15.416 12.511 27.927 27.927 27.927h1414.982c15.416 0 27.927-12.511 27.927-27.927v-968.145c0-15.416-12.511-27.927-27.927-27.927zM55.855-8.145h1359.127v912.291h-1359.127v-912.291zM1256.727 457.309h-446.836c-15.416 0-27.927 12.511-27.927 27.927s12.511 27.927 27.927 27.927h446.836c15.416 0 27.927-12.511 27.927-27.927s-12.511-27.927-27.927-27.927zM1256.727 308.364h-446.836c-15.416 0-27.927 12.511-27.927 27.927s12.511 27.927 27.927 27.927h446.836c15.416 0 27.927-12.511 27.927-27.927s-12.511-27.927-27.927-27.927zM1256.727 159.418h-446.836c-15.416 0-27.927 12.511-27.927 27.927s12.511 27.927 27.927 27.927h446.836c15.416 0 27.927-12.511 27.927-27.927s-12.511-27.927-27.927-27.927zM176.873 122.182c-15.416 0-27.927 12.511-27.927 27.927v148.945c0 15.416 12.511 27.927 27.927 27.927s27.927-12.511 27.927-27.927v-148.945c0-15.416-12.511-27.927-27.927-27.927zM325.818 122.182c-15.416 0-27.927 12.511-27.927 27.927v297.891c0 15.416 12.511 27.927 27.927 27.927s27.927-12.511 27.927-27.927v-297.891c0-15.416-12.511-27.927-27.927-27.927zM474.764 122.182c-15.416 0-27.927 12.511-27.927 27.927v446.836c0 15.416 12.511 27.927 27.927 27.927s27.927-12.511 27.927-27.927v-446.836c0-15.416-12.511-27.927-27.927-27.927zM623.709 122.182c-15.416 0-27.927 12.511-27.927 27.927v297.891c0 15.416 12.511 27.927 27.927 27.927s27.927-12.511 27.927-27.927v-297.891c0-15.416-12.511-27.927-27.927-27.927z" />
<glyph unicode="&#xe904;" glyph-name="facorites" horiz-adv-x="1074" d="M220.144-64.065c-5.037 0-10.009 1.55-14.207 4.585-7.491 5.424-11.172 14.659-9.622 23.7l58.378 340.386-247.395 241.196c-6.587 6.458-8.976 16.080-6.135 24.798 2.841 8.782 10.397 15.176 19.567 16.467l341.807 49.724 152.919 309.712c8.201 16.532 35.259 16.532 43.46 0l152.919-309.712 341.807-49.724c9.17-1.356 16.725-7.749 19.567-16.467s0.517-18.404-6.135-24.798l-247.395-241.067 58.442-340.386c1.55-9.105-2.131-18.275-9.557-23.7-7.491-5.295-17.242-6.070-25.573-1.808l-305.773 160.733-305.773-160.733c-3.552-1.937-7.426-2.906-11.301-2.906zM76.201 546.254l221.37-215.752c5.683-5.554 8.33-13.561 6.974-21.44l-52.243-304.61 273.613 143.878c6.974 3.681 15.434 3.681 22.537 0l273.678-143.878-52.372 304.61c-1.356 7.878 1.227 15.886 6.91 21.44l221.435 215.752-305.837 44.429c-7.878 1.162-14.724 6.070-18.211 13.238l-136.904 277.165-136.839-277.165c-3.552-7.168-10.332-12.141-18.275-13.238l-305.837-44.429z" />
<glyph unicode="&#xe905;" glyph-name="recentts" d="M512-64c-282.296 0-512 229.704-512 512s229.704 512 512 512c282.296 0 512-229.704 512-512s-229.704-512-512-512zM512 919.040c-259.741 0-471.040-211.299-471.040-471.040s211.299-471.040 471.040-471.040 471.040 211.299 471.040 471.040-211.299 471.040-471.040 471.040zM512 427.52c-11.305 0-20.48 9.175-20.48 20.48v409.6c0 11.305 9.175 20.48 20.48 20.48s20.48-9.175 20.48-20.48v-409.6c0-11.305-9.175-20.48-20.48-20.48zM812.373 427.52h-300.373c-11.305 0-20.48 9.175-20.48 20.48s9.175 20.48 20.48 20.48h300.373c11.305 0 20.48-9.175 20.48-20.48s-9.175-20.48-20.48-20.48z" />
<glyph unicode="&#xe906;" glyph-name="shared" horiz-adv-x="1469" d="M488.993-64.049c-253.983 0-488.993 17.066-488.993 140.585 0 97.163 155.157 206.208 345.865 243.029 13.936 3.227 25.966 14.963 30.513 30.318 4.988 16.919-0.098 34.865-13.985 49.193-0.636 0.685-1.222 1.369-1.76 2.103-61.369 61.026-99.314 158.776-99.314 256.086 0 151.148 93.642 256.721 227.675 256.721 131.93 0 227.675-107.97 227.675-256.721 0-99.119-39.364-198.531-102.737-259.411-12.763-13.496-17.702-31.296-12.763-48.019 4.499-15.208 16.381-26.797 31.051-30.318 190.12-36.479 345.767-145.573 345.767-242.981 0-123.52-235.010-140.585-488.993-140.585zM400.387 430.030c23.912-26.65 32.469-61.466 22.885-93.984-9.486-32.176-35.256-56.821-67.237-64.303-190.609-36.821-307.136-138.434-307.136-195.206 0-91.686 331.244-91.686 440.094-91.686s440.094 0 440.094 91.686c0 56.87-116.869 158.629-307.185 195.157-32.714 7.824-58.19 32.371-67.628 64.254-9.878 33.496-0.538 69.486 25.036 96.38 54.034 51.98 88.508 139.95 88.508 224.937 0 122.346-73.496 207.822-178.776 207.822s-178.776-85.476-178.776-207.822c0-84.694 34.181-172.468 87.139-223.616 1.076-1.125 2.103-2.347 2.983-3.619zM1153.681 329.982c-13.496 0-24.45 10.953-24.45 24.45v581.119c0 13.496 10.953 24.45 24.45 24.45s24.45-10.953 24.45-24.45v-581.119c0-13.496-10.953-24.45-24.45-24.45zM1444.24 620.541h-581.168c-13.496 0-24.45 10.953-24.45 24.45s10.953 24.45 24.45 24.45h581.168c13.496 0 24.45-10.953 24.45-24.45s-10.905-24.45-24.45-24.45z" />
<glyph unicode="&#xe907;" glyph-name="sharedme" horiz-adv-x="1640" d="M1291.676 291.243c-51.099 12.18-76.468 79.495-31.279 126.919 60.541 58.162 100.757 157.405 100.757 256.072 0 152.937-96.432 245.982-215.351 245.982s-215.207-93.117-215.207-245.982c0-98.378 40.144-197.261 100.252-255.495h-0.432c46.198-47.712 20.541-115.604-31.279-127.64-26.306-5.045-51.82-11.604-76.324-19.171 115.027-56.577 190.991-136.505 190.991-212.829 0-57.009-36.18-95.279-100.613-120.937 42.378-1.514 86.703-2.090 132.613-2.090 271.784 0 492.108 20.973 492.108 123.027 0.216 82.883-145.514 193.802-346.234 232.144zM492.18 852.396c88.216 0 147.315-71.568 147.315-178.090 0-77.838-32.144-161.081-79.856-206.919-0.721-0.721-1.514-1.514-2.234-2.234-37.55-39.568-51.171-92.973-36.468-143.135 14.27-48.144 52.973-85.189 100.973-96.865 1.009-0.216 2.018-0.432 3.099-0.649 197.622-37.91 288.577-137.009 291.243-164.324-3.82-4.396-26.162-25.081-120-39.64-72.577-11.315-169.297-16.505-304.216-16.505-134.775 0-231.495 5.117-304.072 16.505-94.126 14.703-116.324 35.243-120.072 39.64 2.306 32.793 103.856 128.072 290.306 164.108 0.793 0.288 1.586 0.432 2.45 0.721 48.577 11.171 87.64 48.36 102.054 97.153 14.126 48 2.234 98.955-31.712 138.090-1.946 2.595-4.108 5.189-6.703 7.495-47.568 45.91-79.568 129.081-79.568 206.631 0.216 106.234 59.387 178.018 147.459 178.018zM492.18 920.288c-118.919 0-215.207-93.117-215.207-246.054 0-98.523 40.072-197.189 100.18-255.351h-0.432c46.126-48 20.468-115.676-31.279-127.712-200.144-38.703-345.441-149.189-345.441-232.072 0-101.91 220.324-123.027 492.108-123.027s492.252 21.333 492.252 123.027c0 82.883-145.946 193.802-346.45 232.288-51.171 12.108-76.468 79.351-31.279 126.919 60.468 58.018 100.901 157.333 100.901 256-0.144 152.937-96.432 245.982-215.351 245.982z" />
<glyph unicode="&#xe908;" glyph-name="storage" horiz-adv-x="860" d="M430.080-63.945c-241.172 0-430.080 84.924-430.080 193.331v637.174c0 108.462 188.908 193.44 430.080 193.44s430.080-84.978 430.080-193.44v-637.174c0-108.407-188.908-193.331-430.080-193.331zM430.080 919.040c-232.762 0-389.12-78.862-389.12-152.48v-637.174c0-73.619 156.358-152.371 389.12-152.371s389.12 78.752 389.12 152.371v637.174c0 73.619-156.358 152.48-389.12 152.48zM430.080 154.399c-241.172 0-430.080 84.978-430.080 193.44 0 11.305 9.175 20.48 20.48 20.48s20.48-9.175 20.48-20.48c0-73.673 156.358-152.48 389.12-152.48s389.12 78.807 389.12 152.48c0 11.305 9.175 20.48 20.48 20.48s20.48-9.175 20.48-20.48c0-108.462-188.908-193.44-430.080-193.44zM430.080 372.907c-241.172 0-430.080 84.978-430.080 193.44 0 11.305 9.175 20.48 20.48 20.48s20.48-9.175 20.48-20.48c0-73.619 156.358-152.48 389.12-152.48s389.12 78.862 389.12 152.48c0 11.305 9.175 20.48 20.48 20.48s20.48-9.175 20.48-20.48c0-108.462-188.908-193.44-430.080-193.44zM430.080 591.36c-241.172 0-430.080 84.978-430.080 193.44 0 11.305 9.175 20.48 20.48 20.48s20.48-9.175 20.48-20.48c0-73.619 156.358-152.48 389.12-152.48s389.12 78.862 389.12 152.48c0 11.305 9.175 20.48 20.48 20.48s20.48-9.175 20.48-20.48c0-108.462-188.908-193.44-430.080-193.44z" />
<glyph unicode="&#xe909;" glyph-name="trash" horiz-adv-x="827" d="M827.077 841.846h-236.308v59.077c0 32.571-26.506 59.077-59.077 59.077h-236.308c-32.571 0-59.077-26.506-59.077-59.077v-59.077h-236.308v-39.385h58.998l80.305-866.462h548.47l80.305 866.462h58.998v39.385zM275.692 900.923c0 10.831 8.862 19.692 19.692 19.692h236.308c10.831 0 19.692-8.862 19.692-19.692v-59.077h-275.692v59.077zM651.894-24.615h-476.711l-76.642 827.077h629.996l-76.642-827.077zM393.846 684.308h39.385v-590.769h-39.385v590.769zM275.692 684.308h39.385v-590.769h-39.385v590.769zM512 684.308h39.385v-590.769h-39.385v590.769z" />
<glyph unicode="&#xe90a;" glyph-name="users" d="M512-64c-265.929 0-512 17.265-512 142.582 0 100.067 162.129 212.785 361.485 251.308 17.265 4.044 31.887 18.147 37.331 36.605 5.963 20.273 0 41.634-16.384 58.588-0.57 0.622-1.141 1.244-1.659 1.97-63.099 62.684-103.696 167.106-103.696 267.277 0 156.426 96.593 265.67 234.924 265.67s234.924-109.244 234.924-265.722c0-101.882-41.997-208.015-106.963-270.336-15.399-16.228-21.206-37.382-15.243-57.448 5.392-18.302 19.806-32.301 37.59-36.605 199.045-38.108 361.692-150.982 361.692-251.308 0-125.317-246.071-142.582-512-142.582zM412.97 449.296c24.058-26.598 32.664-61.44 23.124-93.897-9.436-31.835-34.894-56.255-66.521-63.618-195.156-37.642-330.687-142.53-330.687-213.199 0-103.696 356.093-103.696 473.114-103.696s473.114 0 473.114 103.696c0 70.825-135.894 175.921-330.946 213.303-32.146 7.674-57.344 31.938-66.729 63.618-9.799 33.235-0.518 69.114 24.991 95.867 58.329 56.048 95.608 151.137 95.608 242.96 0 133.561-80.624 226.835-196.038 226.835s-196.038-93.327-196.038-226.887c0-91.46 37.020-186.342 94.364-241.768 0.985-0.985 1.867-2.022 2.644-3.215z" />
<glyph unicode="&#xe90b;" glyph-name="userscontent" horiz-adv-x="1207" d="M22.925 277.924c-12.655 0-22.925 10.271-22.925 22.925v464.254c0 14 8.742 45.851 23.048 96.592 5.747 20.297 10.821 38.026 12.227 45.301 5.869 31.668 28.917 53.003 57.466 53.003h300.108c28.427 0 51.475-21.336 57.466-53.065 3.24-17.24 20.847-60.768 31.117-72.077h545.93c31.851 0 57.772-25.676 57.772-57.283v-115.605c0-12.655-10.271-22.925-22.925-22.925s-22.925 10.271-22.925 22.925v115.605c0 6.297-5.38 11.432-11.921 11.432h-550.759c-45.484 0-71.16 108.391-71.344 109.492-0.489 2.629-3.424 15.65-12.41 15.65h-300.108c-9.231 0-12.105-14-12.41-15.589-1.467-8.009-6.908-27.327-13.144-49.397-7.336-25.921-21.030-74.278-21.336-84.121v-464.193c0-12.655-10.271-22.925-22.925-22.925zM1012.568-64h-955.224c-32.707 0-57.344 24.454-57.344 56.977 0 21.703 96.715 391.321 138.286 549.231 11.188 34.235 30.078 50.986 56.549 50.986h955.224c31.606 0 57.344-25.493 57.344-56.855 0-50.925-124.225-498.673-138.408-549.536-5.074-14.856-17.484-50.803-56.427-50.803zM194.835 547.343c-1.651 0-6.603 0-12.594-18.157-53.248-202.171-133.884-513.528-136.452-537.554 0.061-5.991 3.913-9.781 11.554-9.781h955.224c2.69 0 6.358 0 12.716 18.585 52.392 188.538 136.268 502.28 136.268 535.904 0 6.052-5.135 11.004-11.493 11.004h-955.224z" />
<glyph unicode="&#xe90c;" glyph-name="comments" horiz-adv-x="1016" d="M173.677-63.949c-2.47 0-4.94 0.463-7.307 1.389-7.256 2.985-11.99 10.035-11.99 17.908v245.618h-135.082c-10.652 0-19.297 8.645-19.297 19.297v720.438c0 10.652 8.645 19.297 19.297 19.297h977.738c10.652 0 19.297-8.645 19.297-19.297v-720.438c0-10.652-8.645-19.297-19.297-19.297h-555.561l-254.006-259.152c-3.705-3.757-8.697-5.764-13.791-5.764zM38.595 239.562h135.082c10.652 0 19.297-8.645 19.297-19.297v-217.675l226.578 231.209c3.654 3.654 8.594 5.764 13.791 5.764h544.394v681.843h-939.143v-681.843zM816.925 767.025h-617.518c-10.652 0-19.297 8.645-19.297 19.297s8.645 19.297 19.297 19.297h617.518c10.652 0 19.297-8.645 19.297-19.297s-8.645-19.297-19.297-19.297zM816.925 664.106h-617.518c-10.652 0-19.297 8.645-19.297 19.297s8.645 19.297 19.297 19.297h617.518c10.652 0 19.297-8.645 19.297-19.297s-8.645-19.297-19.297-19.297zM816.925 561.186h-617.518c-10.652 0-19.297 8.645-19.297 19.297s8.645 19.297 19.297 19.297h617.518c10.652 0 19.297-8.645 19.297-19.297s-8.645-19.297-19.297-19.297zM816.925 458.266h-617.518c-10.652 0-19.297 8.645-19.297 19.297s8.645 19.297 19.297 19.297h617.518c10.652 0 19.297-8.645 19.297-19.297s-8.645-19.297-19.297-19.297zM816.925 355.346h-617.518c-10.652 0-19.297 8.645-19.297 19.297s8.645 19.297 19.297 19.297h617.518c10.652 0 19.297-8.645 19.297-19.297s-8.645-19.297-19.297-19.297z" />
<glyph unicode="&#xe90d;" glyph-name="download" horiz-adv-x="966" d="M946.288-64h-926.976c-10.712 0-19.312 8.652-19.312 19.312v334.742c0 10.66 8.652 19.312 19.312 19.312s19.312-8.652 19.312-19.312v-315.429h888.352v315.429c0 10.66 8.652 19.312 19.312 19.312s19.312-8.652 19.312-19.312v-334.742c0-10.66-8.652-19.312-19.312-19.312zM482.594 180.567c-4.944 0-9.888 1.905-13.699 5.665l-236.482 236.945c-7.519 7.57-7.519 19.775 0 27.346 7.57 7.519 19.775 7.519 27.346 0l236.482-236.997c7.519-7.519 7.519-19.775-0.051-27.294-3.708-3.811-8.652-5.665-13.596-5.665zM482.543 180.567c-4.944 0-9.888 1.905-13.699 5.665-7.519 7.519-7.519 19.775 0.051 27.294l236.997 236.482c7.519 7.519 19.775 7.519 27.294-0.051 7.519-7.519 7.519-19.775-0.051-27.294l-236.997-236.482c-3.708-3.759-8.652-5.613-13.596-5.613zM482.543 180.567v0c-10.712 0-19.312 8.652-19.312 19.312l0.927 740.809c0 10.712 8.652 19.312 19.312 19.312v0c10.712 0 19.312-8.652 19.312-19.312l-0.927-740.809c0-10.66-8.652-19.312-19.312-19.312z" />
<glyph unicode="&#xe90e;" horiz-adv-x="912" d="M894.079-64h-876.617c-9.639 0-17.462 7.823-17.462 17.462v989.075c0 9.639 7.823 17.462 17.462 17.462h876.617c9.639 0 17.462-7.823 17.462-17.462v-989.075c0-9.639-7.823-17.462-17.462-17.462zM34.925-29.075h841.692v954.15h-841.692v-954.15z" />
<glyph unicode="&#xe90f;" horiz-adv-x="912" d="M561.966 450.328c-3.12 58.441-6.845 128.71-6.24 180.911h-1.863c-14.296-49.128-31.712-101.329-52.853-159.165l-73.994-203.31h-40.979l-67.754 199.585c-19.931 59.046-36.741 113.157-48.522 162.89h-1.257c-1.257-52.248-4.331-122.47-8.056-185.289l-11.223-179.654h-51.596l29.197 419.053h69.012l71.526-202.705c17.416-51.596 31.712-97.65 42.282-141.143h1.863c10.617 42.282 25.519 88.29 44.145 141.143l74.6 202.705h69.012l26.124-419.053h-52.853l-10.571 184.031z" />
<glyph unicode="&#xe910;" glyph-name="preview" horiz-adv-x="1586" d="M793.178-64c-435.782 0-746.837 397.794-759.848 414.74-41.522 53.73-44.815 140.388-7.389 197.17 11.003 16.786 275.637 412.090 767.237 412.090 491.52 0 756.314-395.304 767.317-412.090 37.185-56.862 33.892-143.44-7.549-197.17-13.011-16.946-323.905-414.74-759.768-414.74zM793.178 899.765c-458.35 0-714.391-381.089-716.88-384.863-22.97-34.936-20.801-94.449 4.739-127.378 3.052-4.016 306.397-391.288 712.142-391.288 405.825 0 709.010 387.273 712.061 391.208 25.299 33.009 27.628 92.521 4.899 127.458-2.57 3.775-258.61 384.863-716.961 384.863zM792.616 176.941c-148.179 0-268.73 121.675-268.73 271.139 0 149.384 120.551 270.979 268.73 270.979 148.018 0 268.489-121.595 268.489-270.979 0-149.464-120.471-271.139-268.489-271.139zM792.616 658.824c-114.929 0-208.494-94.529-208.494-210.743 0-116.294 93.565-210.904 208.494-210.904 114.849 0 208.253 94.61 208.253 210.904 0 116.214-93.405 210.743-208.253 210.743z" />
<glyph unicode="&#xe911;" glyph-name="uploadnv" horiz-adv-x="966" d="M946.288-64h-926.976c-10.712 0-19.312 8.652-19.312 19.312v334.742c0 10.66 8.652 19.312 19.312 19.312s19.312-8.652 19.312-19.312v-315.429h888.352v315.429c0 10.66 8.652 19.312 19.312 19.312s19.312-8.652 19.312-19.312v-334.742c0-10.66-8.652-19.312-19.312-19.312zM719.54 684.43c-4.944 0-9.888 1.905-13.699 5.665l-236.482 236.945c-7.519 7.57-7.519 19.775 0.051 27.346 7.519 7.519 19.775 7.519 27.294 0l236.482-236.945c7.519-7.57 7.519-19.775-0.051-27.346-3.759-3.759-8.703-5.665-13.596-5.665zM246.112 684.894c-4.944 0-9.888 1.905-13.699 5.665-7.519 7.57-7.519 19.775 0 27.346l236.997 236.482c7.519 7.519 19.775 7.519 27.294 0 7.519-7.57 7.519-19.775-0.051-27.346l-236.894-236.482c-3.759-3.759-8.703-5.665-13.647-5.665zM482.182 180.567v0c-10.712 0-19.312 8.652-19.312 19.312l0.875 740.809c0 10.712 8.652 19.312 19.312 19.312v0c10.712 0 19.312-8.652 19.312-19.312l-0.875-740.809c0-10.66-8.652-19.312-19.312-19.312z" />
<glyph unicode="&#xe912;" glyph-name="folder-close1" horiz-adv-x="1188" d="M1105.924 714.238h-1024c-45.243 0-81.924-36.672-81.924-81.914v-614.41c0-45.233 36.681-81.914 81.924-81.914h628.532c-9.392 26.276-14.179 54.004-14.132 81.914 0 135.728 110.034 245.771 245.762 245.771s245.771-110.044 245.771-245.771v614.41c-0.029 45.243-36.691 81.914-81.933 81.914zM81.924-64h1024c45.233 0 81.924 36.681 81.924 81.924v614.4c0 45.243-36.691 81.914-81.924 81.914h-628.532c9.402-26.276 14.189-54.004 14.132-81.914 0-135.728-110.034-245.762-245.771-245.762-135.718 0-245.752 110.034-245.752 245.762v-614.4c0-45.243 36.681-81.924 81.924-81.924zM1105.924 837.124h-468.172c-27.403-0.019-53.001 13.654-68.203 36.452l-33.175 49.972c-15.192 22.798-40.799 36.471-68.203 36.452h-386.248c-45.243 0-81.924-36.681-81.924-81.914v-245.762c0 45.243 36.681 81.914 81.924 81.914h1024c45.233 0 81.905-36.672 81.905-81.914v122.876c0 45.243-36.662 81.924-81.905 81.924z" />
<glyph unicode="&#xe913;" glyph-name="folder-open1" horiz-adv-x="1188" d="M1105.924 618.689h-1024c-45.243 0-81.924-36.672-81.924-81.914v-518.86c0-45.233 36.681-81.914 81.924-81.914h628.532c-9.392 26.276-14.179 54.004-14.132 81.914 0 135.728 110.034 245.771 245.762 245.771s245.771-110.044 245.771-245.771v518.86c-0.029 45.243-36.691 81.914-81.933 81.914zM81.924-64h1024c45.233 0 81.924 36.681 81.924 81.924v518.851c0 45.243-36.691 81.914-81.924 81.914h-628.532c9.402-26.276 14.189 12.88 14.132-15.030 0-135.728-110.034-217.097-245.771-217.097-135.718 0-245.752 33.595-245.752 169.323v-537.961c0-45.243 36.681-81.924 81.924-81.924zM1105.924 837.124h-468.172c-27.403-0.019-53.001 13.654-68.203 36.452l-33.175 49.972c-15.192 22.798-40.799 36.471-68.203 36.452h-386.248c-45.243 0-81.924-36.681-81.924-81.914v-245.762c0 45.243 36.681 81.914 81.924 81.914h1024c45.233 0 81.905-36.672 81.905-81.914v122.876c0 45.243-36.662 81.924-81.905 81.924z" />
</font>
</defs>
</svg>
