<?xml version="1.0" encoding="utf-8"?>
<!-- Generator: Adobe Illustrator 16.0.0, SVG Export Plug-In . SVG Version: 6.00 Build 0)  -->
<!DOCTYPE svg PUBLIC "-//W3C//DTD SVG 1.1//EN" "http://www.w3.org/Graphics/SVG/1.1/DTD/svg11.dtd">
<svg version="1.1" id="Layer_1" xmlns="http://www.w3.org/2000/svg" xmlns:xlink="http://www.w3.org/1999/xlink" x="0px" y="0px"
	 width="55px" height="54.334px" viewBox="242.138 177.3 55 54.334" enable-background="new 242.138 177.3 55 54.334"
	 xml:space="preserve">
<g>
	<defs>
		<rect id="SVGID_1_" x="-305.759" y="13.088" width="220.607" height="309.268"/>
	</defs>
	<clipPath id="SVGID_2_">
		<use xlink:href="#SVGID_1_"  overflow="visible"/>
	</clipPath>
	<path clip-path="url(#SVGID_2_)" fill="#2E7D32" d="M-286.429,13.088h112.583c1.056,0,2.065,0.418,2.813,1.162l84.709,84.38
		c0.751,0.749,1.173,1.766,1.173,2.825v197.583c0,12.877-10.438,23.316-23.314,23.316h-173.979
		c-12.877,0.002-23.314-10.438-23.314-23.314V32.417C-305.759,21.739-297.099,13.088-286.429,13.088"/>
</g>
<g>
	<defs>
		<rect id="SVGID_3_" x="-305.759" y="13.088" width="220.607" height="309.268"/>
	</defs>
	<clipPath id="SVGID_4_">
		<use xlink:href="#SVGID_3_"  overflow="visible"/>
	</clipPath>
	<path clip-path="url(#SVGID_4_)" fill="#08590A" d="M-85.153,99.876h-67.372c-10.67,0-19.329-8.659-19.329-19.329V13.088
		L-85.153,99.876z"/>
</g>
<g>
	<defs>
		<rect id="SVGID_5_" x="-305.759" y="13.088" width="220.607" height="309.268"/>
	</defs>
	<clipPath id="SVGID_6_">
		<use xlink:href="#SVGID_5_"  overflow="visible"/>
	</clipPath>
</g>
<g>
	<defs>
		<rect id="SVGID_7_" x="-305.759" y="13.088" width="220.607" height="309.268"/>
	</defs>
	<clipPath id="SVGID_8_">
		<use xlink:href="#SVGID_7_"  overflow="visible"/>
	</clipPath>
</g>
<g>
	<defs>
		<rect id="SVGID_9_" x="-305.759" y="13.088" width="220.607" height="309.268"/>
	</defs>
	<clipPath id="SVGID_10_">
		<use xlink:href="#SVGID_9_"  overflow="visible"/>
	</clipPath>
</g>
<g>
	<defs>
		<rect id="SVGID_11_" x="-305.759" y="13.088" width="220.607" height="309.268"/>
	</defs>
	<clipPath id="SVGID_12_">
		<use xlink:href="#SVGID_11_"  overflow="visible"/>
	</clipPath>
</g>
<g>
	<defs>
		<rect id="SVGID_13_" x="-305.759" y="13.088" width="220.607" height="309.268"/>
	</defs>
	<clipPath id="SVGID_14_">
		<use xlink:href="#SVGID_13_"  overflow="visible"/>
	</clipPath>
</g>
<g>
	<defs>
		<rect id="SVGID_15_" x="-305.759" y="13.088" width="220.607" height="309.268"/>
	</defs>
	<clipPath id="SVGID_16_">
		<use xlink:href="#SVGID_15_"  overflow="visible"/>
	</clipPath>
</g>
<g>
	<defs>
		<rect id="SVGID_17_" x="-305.759" y="13.088" width="220.607" height="309.268"/>
	</defs>
	<clipPath id="SVGID_18_">
		<use xlink:href="#SVGID_17_"  overflow="visible"/>
	</clipPath>
</g>
<g>
	<defs>
		<rect id="SVGID_19_" x="-305.759" y="13.088" width="220.607" height="309.268"/>
	</defs>
	<clipPath id="SVGID_20_">
		<use xlink:href="#SVGID_19_"  overflow="visible"/>
	</clipPath>
</g>
<g>
	<defs>
		<rect id="SVGID_21_" x="-305.759" y="13.088" width="220.607" height="309.268"/>
	</defs>
	<clipPath id="SVGID_22_">
		<use xlink:href="#SVGID_21_"  overflow="visible"/>
	</clipPath>
</g>
<g>
	<defs>
		<rect id="SVGID_23_" x="-305.759" y="13.088" width="220.607" height="309.268"/>
	</defs>
	<clipPath id="SVGID_24_">
		<use xlink:href="#SVGID_23_"  overflow="visible"/>
	</clipPath>
</g>
<path fill-rule="evenodd" clip-rule="evenodd" fill="#FFFFFF" d="M-116.531,274.126c-52.757,0-105.113,0-157.848,0
	c13.133-35.025,26.203-69.889,39.442-105.197c17.69,22.1,35.122,43.881,52.656,65.789c8.791-6.588,17.422-13.057,26.318-19.723
	C-142.884,234.604-129.823,254.192-116.531,274.126z"/>
<path fill-rule="evenodd" clip-rule="evenodd" fill="#FFFFFF" d="M-179.582,141.216c-0.291,10.995-9.299,19.664-20.072,19.32
	c-11.102-0.355-19.546-9.245-19.211-20.138c0.348-11.321,9.524-19.374,20.03-19.182
	C-187.98,121.415-179.301,130.592-179.582,141.216z"/>
<rect x="277.315" y="177.334" fill="#FFFFFF" width="3.827" height="19.469"/>
<rect x="277.315" y="192.975" fill="#FFFFFF" width="19.469" height="3.827"/>
<g>
	<rect x="257.956" y="212.328" fill="#FFFFFF" width="3.827" height="19.469"/>
	<rect x="242.315" y="212.328" fill="#FFFFFF" width="19.469" height="3.827"/>
</g>
</svg>
