<?xml version="1.0" encoding="utf-8"?>
<!-- Generator: Adobe Illustrator 16.0.0, SVG Export Plug-In . SVG Version: 6.00 Build 0)  -->
<!DOCTYPE svg PUBLIC "-//W3C//DTD SVG 1.1//EN" "http://www.w3.org/Graphics/SVG/1.1/DTD/svg11.dtd">
<svg version="1.1" id="Layer_1" xmlns="http://www.w3.org/2000/svg" xmlns:xlink="http://www.w3.org/1999/xlink" x="0px" y="0px"
	 width="200px" height="59.121px" viewBox="0 82.676 200 59.121" enable-background="new 0 82.676 200 59.121" xml:space="preserve"
	>
<g>
	<polygon fill="#1463DC" points="1.383,87.05 8.425,87.05 10.692,104.416 16.95,87.05 22.9,86.5 26.108,104.416 32.05,86.975 
		39.092,87.125 29.083,113.883 22.508,113.883 19.3,97.217 13.042,113.883 6.158,113.883 	"/>
	<path fill="#1463DC" d="M143.85,100c0,0,4.268-2.467,4.301-6.492s-3.643-6.533-8.134-6.533c-4.5,0-11.616,0-11.616,0l-4.15,26.992
		h13.258c0,0,8.101-1.092,9.584-6.967C148.584,101.133,143.85,100,143.85,100z M140.533,105.3c-0.333,2.659-3.166,2.858-3.166,2.858
		h-5.551l0.858-5.316h5C137.684,102.842,140.85,102.834,140.533,105.3z M141.309,95.15c-0.334,2.658-3.167,2.858-3.167,2.858h-4.733
		l0.858-5.316h4.184C138.45,92.683,141.625,92.683,141.309,95.15z"/>
	<path fill="#1463DC" d="M196.7,106.608c0,0-2.351,3.208-4.575,3.167c-2.233-0.042-4.267-3.209-4.342-5.167
		c2.584-3.092,6.492-8.608,6.492-8.608h-6.842l-2.742,3.717l-1.991-3.95L176.517,96c0,0-3.792,13.533-9.467,14.158
		c0,0,6.608-14.608-5.866-14.608s-16.434,18.559-4.384,18.95c4.542,0.066,6.142-1.059,6.142-1.059s5.242,1.176,10.717-4.225
		c2.7-2.658,4.417-9.658,4.417-9.658l2.466,5.008l-6.725,9.393h7.042l2.892-3.951c0,0,1.642,4.976,5.75,4.5
		c4.108-0.475,6.608-2.35,9.117-5.633C197.633,107.625,196.7,106.608,196.7,106.608z M161.916,106.041
		c-0.875,2.334-2.774,3.784-4.225,3.234c-1.458-0.551-1.925-2.884-1.041-5.217c0.875-2.334,2.774-3.784,4.225-3.233
		C162.325,101.367,162.791,103.709,161.916,106.041z"/>
	<path fill="#39B54A" d="M98.858,106.75c0,0-2.05,3.108-6.508,2.633c-4.458-0.467,1.292-9.191,1.292-9.191s0.825-0.667,0.883-4.184
		c-8.742,0.117-14.783-2.933-14.783-2.933l-0.525,4.691c0,0,0.767,0.35,1.35,0.767c0.792,4.517-0.742,9.075-4.108,10.608
		c-0.684,1.625-1.434,3.075-2.125,5.192c8.867-2.234,9.108-14.867,9.108-14.867s2.325,0.842,3.933,0.825
		c-2.975,4.75-3.117,6.642-3.225,9.15c-0.108,2.509,2.175,5.225,6.692,5.225s7.333-2.758,7.333-2.758l-0.058,2.108"/>
	<g>
		<path fill="#1463DC" d="M120.459,106.684c-5.051,6.158-7.351,2.425-7.867-2.292c4.4-3.458,6.041-8.158,6.041-8.158
			s-3.516,0-6.808,0c-1.817,4.167-5.458,5.634-5.458,5.634l2.524-16.55l-6.75,0.408l-3.2,20.167l0,0l-0.85,8.083v0.033h6.458
			l1-6.924c0,0,0.642,0.116,1.409-0.059c0.582,4.458,2.933,7.741,7.274,7.625c4.342-0.117,8.509-5.867,8.509-5.867
			S122.217,107.975,120.459,106.684z"/>
		<path fill="#1463DC" d="M76.508,109.1c-0.892,0.426-1.908,0.643-3.05,0.584c-5.4-0.292-0.409-7.217,0.175-8.684
			s1.075-3.133,1.233-4.983c-10.033-0.233-14.55-2.933-14.55-2.933L59.5,98.167c0,0,0.833,0.233,1.458,0.159
			c1.008,5.233-2.159,13.183-7.333,12.066c2.108-1.759,5.575-14.825-5.983-14.825c-11.558,0-11.383,12.183-11.383,12.183
			c0.492,10.408,13.617,5.575,13.617,5.575s2.175,0.716,3.458,0.566c9.333-1.134,10.617-10.601,10.558-14.417
			c0.617,0.158,2.7,0.408,3.875,0.725c-1,1.308-8.333,14.3,3.517,14.475c1.158,0.017,2.2-0.116,3.142-0.366
			C75.017,112.566,75.842,110.592,76.508,109.1z M48.658,105.95c-0.875,2.333-2.775,3.783-4.225,3.233
			c-1.458-0.551-1.925-2.884-1.042-5.217c0.875-2.334,2.775-3.783,4.225-3.233C49.075,101.275,49.542,103.617,48.658,105.95z"/>
	</g>
</g>
<g>
	<path d="M76.375,125.26h5.786c1.964,0,3.488,0.697,4.57,2.091c0.966,1.257,1.449,2.868,1.449,4.833
		c0,1.517-0.285,2.889-0.856,4.113c-1.004,2.164-2.732,3.248-5.183,3.248h-5.766V125.26z M81.772,137.891
		c0.655,0,1.193-0.068,1.614-0.204c0.752-0.252,1.368-0.738,1.848-1.457c0.382-0.578,0.658-1.316,0.827-2.218
		c0.097-0.538,0.146-1.037,0.146-1.499c0-1.769-0.352-3.144-1.055-4.122c-0.703-0.978-1.836-1.468-3.398-1.468H78.32v10.968H81.772z
		"/>
	<path d="M90.485,129.13h1.663v1.799c0.136-0.351,0.47-0.776,1.001-1.278c0.531-0.503,1.144-0.753,1.838-0.753
		c0.032,0,0.087,0.003,0.166,0.009c0.078,0.007,0.21,0.02,0.398,0.039v1.848c-0.104-0.02-0.199-0.032-0.287-0.039
		c-0.088-0.006-0.184-0.01-0.287-0.01c-0.882,0-1.559,0.283-2.033,0.852c-0.473,0.566-0.709,1.22-0.709,1.958v5.991h-1.75V129.13z"
		/>
	<path d="M97.067,125.26h1.78v1.983h-1.78V125.26z M97.067,129.178h1.78v10.367h-1.78V129.178z"/>
	<path d="M102.348,129.13l2.781,8.479l2.907-8.479h1.916l-3.929,10.415h-1.867l-3.84-10.415H102.348z"/>
	<path d="M117.936,129.418c0.693,0.347,1.222,0.795,1.585,1.346c0.35,0.524,0.583,1.138,0.7,1.837
		c0.104,0.481,0.155,1.245,0.155,2.296h-7.633c0.032,1.058,0.281,1.905,0.748,2.543c0.467,0.639,1.19,0.957,2.168,0.957
		c0.915,0,1.644-0.301,2.188-0.904c0.311-0.35,0.532-0.755,0.661-1.215h1.722c-0.046,0.383-0.197,0.809-0.452,1.278
		c-0.257,0.471-0.543,0.854-0.86,1.152c-0.532,0.519-1.19,0.869-1.975,1.05c-0.421,0.104-0.897,0.155-1.43,0.155
		c-1.297,0-2.396-0.471-3.296-1.414c-0.901-0.943-1.352-2.265-1.352-3.963c0-1.673,0.453-3.03,1.361-4.074
		c0.907-1.043,2.094-1.564,3.559-1.564C116.525,128.897,117.241,129.07,117.936,129.418z M118.577,133.506
		c-0.071-0.759-0.237-1.364-0.496-1.819c-0.479-0.842-1.28-1.264-2.402-1.264c-0.804,0-1.478,0.291-2.022,0.871
		c-0.544,0.579-0.833,1.317-0.865,2.212H118.577z"/>
</g>
</svg>
