<?xml version="1.0" encoding="utf-8"?>
<!-- Generator: Adobe Illustrator 16.0.0, SVG Export Plug-In . SVG Version: 6.00 Build 0)  -->
<!DOCTYPE svg PUBLIC "-//W3C//DTD SVG 1.1//EN" "http://www.w3.org/Graphics/SVG/1.1/DTD/svg11.dtd">
<svg version="1.1" id="Layer_1" xmlns="http://www.w3.org/2000/svg" xmlns:xlink="http://www.w3.org/1999/xlink" x="0px" y="0px"
	 width="124.318px" height="107.17px" viewBox="0 0 124.318 107.17" enable-background="new 0 0 124.318 107.17"
	 xml:space="preserve">
<g>
	<defs>
		<rect id="SVGID_1_" width="124.318" height="107.17"/>
	</defs>
	<clipPath id="SVGID_2_">
		<use xlink:href="#SVGID_1_"  overflow="visible"/>
	</clipPath>
	<path clip-path="url(#SVGID_2_)" fill="#A1D8FF" d="M115.743,25.721H8.574C3.839,25.721,0,29.559,0,34.294v64.303
		c0,4.734,3.839,8.573,8.573,8.573h65.781c-0.983-2.75-1.485-5.652-1.478-8.573c0-14.205,11.516-25.722,25.721-25.722
		c14.204,0,25.72,11.517,25.72,25.722V34.294C124.317,29.559,120.479,25.721,115.743,25.721"/>
	<path clip-path="url(#SVGID_2_)" fill="#A1D8FF" d="M8.574,107.17h107.17c4.734,0,8.573-3.839,8.573-8.574V34.294
		c0-4.735-3.839-8.573-8.573-8.573H49.963c0.983,2.75,1.485,5.652,1.478,8.573c0,14.205-11.516,25.721-25.721,25.721
		C11.517,60.015,0,48.499,0,34.294v64.302C0,103.331,3.839,107.17,8.574,107.17"/>
	<path clip-path="url(#SVGID_2_)" fill="#7FC5EF" d="M115.743,12.86H66.745c-2.866,0.002-5.546-1.429-7.138-3.815l-3.471-5.23
		C54.545,1.429,51.867-0.002,48.999,0H8.574C3.839,0,0,3.839,0,8.573v25.721c0-4.735,3.839-8.573,8.573-8.573h107.169
		c4.735,0,8.574,3.838,8.574,8.573v-12.86C124.317,16.699,120.479,12.86,115.743,12.86"/>
	<path clip-path="url(#SVGID_2_)" fill="#4B9BC4" d="M95.864,79.619c-2.256-0.543-3.372-3.499-1.377-5.597
		c2.669-2.563,4.447-6.939,4.447-11.294c0-6.746-4.251-10.853-9.496-10.853c-5.244,0-9.496,4.107-9.496,10.853
		c0,4.341,1.768,8.703,4.421,11.269h-0.016c2.035,2.107,0.9,5.102-1.379,5.63c-8.828,1.705-15.235,6.582-15.235,10.233
		c0,4.496,9.717,5.426,21.705,5.426s21.706-0.93,21.706-5.426C111.145,86.203,104.716,81.316,95.864,79.619"/>
</g>
</svg>
